<?xml version="1.0" encoding="utf-8"?>
<!-- Generator: Adobe Illustrator 19.0.0, SVG Export Plug-In . SVG Version: 6.00 Build 0)  -->
<svg version="1.1" id="Layer_1" xmlns="http://www.w3.org/2000/svg" xmlns:xlink="http://www.w3.org/1999/xlink" x="0px" y="0px"
	 viewBox="-66 240 478 313" style="enable-background:new -66 240 478 313;" xml:space="preserve">
<style type="text/css">
	.st0{fill:#431853;}
	.st1{fill:#482B75;}
	.st2{fill:#732C8D;}
	.st3{fill:#FFFFFF;}
	.st4{fill:#8F4F9F;}
	.st5{fill:#5B3C97;}
	.st6{fill:#7E64AC;}
	.st7{fill:none;stroke:#000000;stroke-width:0.75;stroke-miterlimit:10;}
	.st8{font-family:'AvenirLTStd-Book';}
	.st9{font-size:12px;}
	.st10{fill:none;stroke:#000000;stroke-width:0.5;stroke-miterlimit:10;}
	.st11{font-size:8px;}
</style>
<rect id="XMLID_1_" x="42.9" y="280.7" class="st0" width="105.4" height="247.9"/>
<rect id="XMLID_2_" x="206.2" y="331.7" class="st1" width="105.4" height="196.9"/>
<rect id="XMLID_13_" x="42.9" y="303.3" class="st2" width="105.4" height="225.3"/>
<rect id="XMLID_14_" x="42.9" y="438.5" class="st3" width="105.4" height="90.1"/>
<rect id="XMLID_15_" x="42.9" y="415.9" class="st4" width="105.4" height="112.7"/>
<rect id="XMLID_16_" x="206.2" y="380.9" class="st5" width="105.4" height="147.7"/>
<rect id="XMLID_17_" x="206.2" y="424" class="st6" width="105.4" height="104.6"/>
<line id="XMLID_26_" class="st7" x1="-27.7" y1="268" x2="-27.7" y2="540"/>
<line id="XMLID_27_" class="st7" x1="-27.7" y1="528.7" x2="407.8" y2="528.7"/>
<text id="XMLID_28_" transform="matrix(1 0 0 1 287.0332 282.9258)" class="st8 st9">search...</text>
<line id="XMLID_29_" class="st10" x1="287" y1="288.7" x2="397.8" y2="288.7"/>
<text id="XMLID_3_" transform="matrix(1 0 0 1 59.6668 543.6665)" class="st8 st9">Social security</text>
<text id="XMLID_4_" transform="matrix(1 0 0 1 216.0002 543.9998)" class="st8 st9">National defense</text>
<line id="XMLID_5_" class="st10" x1="391.6" y1="294.5" x2="396.6" y2="299.5"/>
<line id="XMLID_6_" class="st10" x1="391.6" y1="294.5" x2="396.6" y2="299.5"/>
<line id="XMLID_7_" class="st10" x1="396.6" y1="294.5" x2="391.6" y2="299.5"/>
<text id="XMLID_8_" transform="matrix(1 0 0 1 286.333 299.6668)" class="st8 st11">national defense</text>
<text id="XMLID_9_" transform="matrix(1 0 0 1 286.9997 309.0002)" class="st8 st11">social security</text>
<line id="XMLID_12_" class="st10" x1="391.6" y1="304.5" x2="396.6" y2="309.5"/>
<line id="XMLID_11_" class="st10" x1="391.6" y1="304.5" x2="396.6" y2="309.5"/>
<line id="XMLID_10_" class="st10" x1="396.6" y1="304.5" x2="391.6" y2="309.5"/>
<text transform="matrix(1 0 0 1 -49 262)" class="st8 st11">millions/USD</text>
<text transform="matrix(1 0 0 1 -61 281)" class="st8 st11">30,000</text>
<text transform="matrix(1 0 0 1 -61 358)" class="st8 st11">20,000</text>
<text transform="matrix(1 0 0 1 -61 454)" class="st8 st11">10,000</text>
</svg>
