<?xml version="1.0" encoding="utf-8"?>
<!-- Generator: Adobe Illustrator 19.0.0, SVG Export Plug-In . SVG Version: 6.00 Build 0)  -->
<svg version="1.1" id="Layer_1" xmlns="http://www.w3.org/2000/svg" xmlns:xlink="http://www.w3.org/1999/xlink" x="0px" y="0px"
	 viewBox="-66 240 478 313" style="enable-background:new -66 240 478 313;" xml:space="preserve">
<style type="text/css">
	.st0{fill:#431853;}
	.st1{fill:#482B75;}
	.st2{fill:#414588;}
	.st3{fill:#355F8D;}
	.st4{fill:#2B788E;}
	.st5{fill:#1E918C;}
	.st6{fill:#20A884;}
	.st7{fill:#4DBA70;}
	.st8{fill:#81C455;}
	.st9{fill:#BCD632;}
	.st10{fill:#FCE61E;}
	.st11{fill:#FAF17A;}
	.st12{fill:#732C8D;}
	.st13{fill:#FFFFFF;}
	.st14{fill:#8F4F9F;}
	.st15{fill:#5B3C97;}
	.st16{fill:#7E64AC;}
	.st17{fill:#575CA9;}
	.st18{fill:#6697CB;}
	.st19{fill:#3EACCB;}
	.st20{fill:#4CC9F4;}
	.st21{fill:#3AC6F4;}
	.st22{fill:#71C7A9;}
	.st23{fill:#8DCB8A;}
	.st24{fill:#DDE232;}
	.st25{fill:none;stroke:#000000;stroke-width:0.75;stroke-miterlimit:10;}
	.st26{font-family:'AvenirLTStd-Book';}
	.st27{font-size:12px;}
	.st28{fill:none;stroke:#000000;stroke-width:0.5;stroke-miterlimit:10;}
	.st29{fill:#00AEEF;}
	.st30{font-size:8px;}
</style>
<rect id="XMLID_1_" x="-13.1" y="280.7" class="st0" width="20" height="247.9"/>
<rect id="XMLID_2_" x="17.9" y="331.7" class="st1" width="20" height="196.9"/>
<rect id="XMLID_3_" x="47.9" y="344" class="st2" width="20" height="184.6"/>
<rect id="XMLID_4_" x="77.9" y="348.3" class="st3" width="20" height="180.3"/>
<rect id="XMLID_8_" x="107.9" y="378.4" class="st4" width="20" height="150.2"/>
<rect id="XMLID_7_" x="138.9" y="385.9" class="st5" width="20" height="142.7"/>
<rect id="XMLID_6_" x="168.9" y="427.2" class="st6" width="20" height="101.4"/>
<rect id="XMLID_5_" x="198.9" y="446" class="st7" width="20" height="82.6"/>
<rect id="XMLID_12_" x="228.9" y="453.5" class="st8" width="20" height="75.1"/>
<rect id="XMLID_11_" x="259.9" y="457.2" class="st9" width="20" height="71.4"/>
<rect id="XMLID_10_" x="289.9" y="468.5" class="st10" width="20" height="60.1"/>
<rect id="XMLID_9_" x="319.9" y="472.3" class="st11" width="20" height="56.3"/>
<rect id="XMLID_13_" x="-13.1" y="303.3" class="st12" width="20" height="225.3"/>
<rect id="XMLID_14_" x="-13.1" y="438.5" class="st13" width="20" height="90.1"/>
<rect id="XMLID_15_" x="-13.1" y="415.9" class="st14" width="20" height="112.7"/>
<rect id="XMLID_16_" x="17.9" y="380.9" class="st15" width="20" height="147.7"/>
<rect id="XMLID_17_" x="17.9" y="424" class="st16" width="20" height="104.6"/>
<rect id="XMLID_18_" x="47.9" y="402.4" class="st17" width="20" height="126.2"/>
<rect id="XMLID_19_" x="77.9" y="453.5" class="st18" width="20" height="75.1"/>
<rect id="XMLID_20_" x="107.9" y="393.4" class="st19" width="20" height="135.2"/>
<rect id="XMLID_21_" x="107.9" y="431" class="st20" width="20" height="97.6"/>
<rect id="XMLID_22_" x="138.9" y="408.4" class="st21" width="20" height="120.2"/>
<rect id="XMLID_23_" x="168.9" y="464.8" class="st22" width="20" height="63.8"/>
<rect id="XMLID_24_" x="198.9" y="483.5" class="st23" width="20" height="45.1"/>
<rect id="XMLID_25_" x="259.9" y="476" class="st24" width="20" height="52.6"/>
<line id="XMLID_26_" class="st25" x1="-31.7" y1="268" x2="-31.7" y2="540"/>
<line id="XMLID_27_" class="st25" x1="-31.7" y1="528.7" x2="403.8" y2="528.7"/>
<text id="XMLID_28_" transform="matrix(1 0 0 1 283.0332 282.9258)" class="st26 st27">search...</text>
<line id="XMLID_29_" class="st28" x1="283" y1="288.7" x2="393.8" y2="288.7"/>
<line id="XMLID_30_" class="st25" x1="66.3" y1="351.2" x2="83.7" y2="335.7"/>
<text transform="matrix(1 0 0 1 88.5783 311.0248)" class="st26 st27">Category: Other national defence</text>
<text transform="matrix(1 0 0 1 88.5783 325.4248)" class="st26 st27">Outlay: $6,602.89 million</text>
<text transform="matrix(1 0 0 1 88.5783 339.8248)" class="st29 st26 st27">Read more</text>
<text transform="matrix(1 0 0 1 -49 262)" class="st26 st30">millions/USD</text>
<text transform="matrix(1 0 0 1 -61 281)" class="st26 st30">30,000</text>
<text transform="matrix(1 0 0 1 -61 358)" class="st26 st30">20,000</text>
<text transform="matrix(1 0 0 1 -61 454)" class="st26 st30">10,000</text>
</svg>
