<?xml version="1.0" encoding="utf-8"?>
<!-- Generator: Adobe Illustrator 19.0.0, SVG Export Plug-In . SVG Version: 6.00 Build 0)  -->
<svg version="1.1" id="Layer_1" xmlns="http://www.w3.org/2000/svg" xmlns:xlink="http://www.w3.org/1999/xlink" x="0px" y="0px"
	 viewBox="0 0 478 313" style="enable-background:new 0 0 478 313;" xml:space="preserve">
<style type="text/css">
	.st0{fill:#431853;}
	.st1{fill:#482B75;}
	.st2{fill:#732C8D;}
	.st3{fill:#FFFFFF;}
	.st4{fill:#8F4F9F;}
	.st5{fill:#5B3C97;}
	.st6{fill:#7E64AC;}
	.st7{fill:none;stroke:#000000;stroke-width:0.75;stroke-miterlimit:10;}
	.st8{font-family:'AvenirLTStd-Book';}
	.st9{font-size:12px;}
	.st10{fill:none;stroke:#000000;stroke-width:0.5;stroke-miterlimit:10;}
	.st11{font-size:8px;}
	.st12{opacity:0.9;fill:#00AEEF;}
	.st13{fill:#F1F2F2;}
	.st14{font-size:16px;}
	.st15{font-size:17px;}
	.st16{fill:#C2E1B4;}
	.st17{font-family:'AvenirLTStd-Medium';}
	.st18{font-size:13px;}
</style>
<rect id="XMLID_1_" x="94.9" y="40.7" class="st0" width="105.4" height="247.9"/>
<rect id="XMLID_2_" x="258.2" y="91.7" class="st1" width="105.4" height="196.9"/>
<rect id="XMLID_13_" x="94.9" y="63.3" class="st2" width="105.4" height="225.3"/>
<rect id="XMLID_14_" x="94.9" y="198.5" class="st3" width="105.4" height="90.1"/>
<rect id="XMLID_15_" x="94.9" y="175.9" class="st4" width="105.4" height="112.7"/>
<rect id="XMLID_16_" x="258.2" y="140.9" class="st5" width="105.4" height="147.7"/>
<rect id="XMLID_17_" x="258.2" y="184" class="st6" width="105.4" height="104.6"/>
<line id="XMLID_26_" class="st7" x1="24.3" y1="28" x2="24.3" y2="300"/>
<line id="XMLID_27_" class="st7" x1="24.3" y1="288.7" x2="459.8" y2="288.7"/>
<text id="XMLID_28_" transform="matrix(1 0 0 1 339.0332 42.9258)" class="st8 st9">search...</text>
<line id="XMLID_29_" class="st10" x1="339" y1="48.7" x2="449.8" y2="48.7"/>
<text id="XMLID_3_" transform="matrix(1 0 0 1 111.6668 303.6665)" class="st8 st9">Social security</text>
<text id="XMLID_4_" transform="matrix(1 0 0 1 268.0002 303.9998)" class="st8 st9">National defense</text>
<line id="XMLID_5_" class="st10" x1="443.6" y1="54.5" x2="448.6" y2="59.5"/>
<line id="XMLID_6_" class="st10" x1="443.6" y1="54.5" x2="448.6" y2="59.5"/>
<line id="XMLID_7_" class="st10" x1="448.6" y1="54.5" x2="443.6" y2="59.5"/>
<text id="XMLID_8_" transform="matrix(1 0 0 1 338.333 59.6668)" class="st8 st11">national defense</text>
<text id="XMLID_9_" transform="matrix(1 0 0 1 338.9997 69.0002)" class="st8 st11">social security</text>
<line id="XMLID_12_" class="st10" x1="443.6" y1="64.5" x2="448.6" y2="69.5"/>
<line id="XMLID_11_" class="st10" x1="443.6" y1="64.5" x2="448.6" y2="69.5"/>
<line id="XMLID_10_" class="st10" x1="448.6" y1="64.5" x2="443.6" y2="69.5"/>
<rect id="XMLID_18_" x="72" y="58.5" class="st12" width="341.5" height="202.5"/>
<text id="XMLID_19_" transform="matrix(1 0 0 1 80.9116 89.25)" class="st13 st8 st14">Medicaid and children’s health care insurance</text>
<text id="XMLID_20_" transform="matrix(1 0 0 1 160.7749 112.25)" class="st13 st8 st14">Outlay: $700.36 million</text>
<text id="XMLID_24_" transform="matrix(1 0 0 1 129.4395 230.75)"><tspan x="0" y="0" class="st13 st8 st15">Learn more at </tspan><tspan x="110.2" y="0" class="st16 st17 st14">whitehouse.gov</tspan><tspan x="224.9" y="0" class="st13 st8 st15">.</tspan></text>
<text id="XMLID_21_" transform="matrix(1 0 0 1 121.1094 148.25)"><tspan x="0" y="0" class="st13 st8 st18">Voluptatem est nesciunt quia aut deserunt</tspan><tspan x="-39" y="15.6" class="st13 st8 st18">reprehenderit sunt ratione. Debitis architecto voluptate </tspan><tspan x="-25.6" y="31.2" class="st13 st8 st18">in voluptas. Vero optio rem exercitationem veniam </tspan><tspan x="67.3" y="46.8" class="st13 st8 st18">quis sunt nesciunt. </tspan></text>
<text id="XMLID_23_" transform="matrix(1 0 0 1 306 421)" class="st9" style="font-family:'MyriadPro-Regular';">Voluptatem est nesciunt quia aut deserunt reprehenderit sunt ratione. Debitis architecto voluptate in voluptas. Vero optio rem exercitationem veniam quis sunt nesciunt. Aut dolores nesciunt nihil mollitia hic. Ducimus libero dolorem sunt enim ea quis provident dignissimos.</text>
</svg>
